# xmcd
#
# Track frame offsets:
#	150
#	20307
#	36057
#	52742
#	71117
#	82756
#	97606
#	113431
#	128694
#	144219
#	153407
#
# Disc length: 2185 seconds
#
# Revision: 1
# Processed by: cddbd v1.5.2PL0 Copyright (c) Steve Scherf et al.
# Submitted via: audiograbber 1.83.01
#
DISCID=7008870b
DTITLE=Gallaher, Ben - Chris Ledoux Night
DYEAR=2009
DGENRE=Country
TTITLE0=Chris Ledoux Night
TTITLE1=Wagon Wheel
TTITLE2=Right Beside Me
TTITLE3=In Color
TTITLE4=How I Got to Be This Way
TTITLE5=Song for Dad
TTITLE6=Ballad of John Wayne, The
TTITLE7=8th of November
TTITLE8=These Are the Days
TTITLE9=Instrumental 1
TTITLE10=Instrumental 2
EXTD=
EXTT0=
EXTT1=
EXTT2=
EXTT3=
EXTT4=
EXTT5=
EXTT6=
EXTT7=
EXTT8=
EXTT9=
EXTT10=
PLAYORDER=
